<?xml version="1.0" encoding="UTF-8" standalone="no"?>
<svg xmlns:rdf="http://www.w3.org/1999/02/22-rdf-syntax-ns#" xmlns="http://www.w3.org/2000/svg" height="312px" width="502px" xmlns:cc="http://creativecommons.org/ns#" xmlns:xlink="http://www.w3.org/1999/xlink" xmlns:dc="http://purl.org/dc/elements/1.1/">
<title>Grain silos 2</title>
<desc xmlns:ian_image_library="http://ian.umces.edu/imagelibrary/">
      <ian_image_library:title>Grain silos 2</ian_image_library:title>
      <ian_image_library:descr>Illustration of grain silos</ian_image_library:descr>
      <ian_image_library:scene>
		<ian_image_library:contains>symbol vector illustration agriculture agricultural industry farming production land use cultivation grain silage silos harvest storage stores </ian_image_library:contains>
        <ian_image_library:when>2008-12-22</ian_image_library:when> 
	  </ian_image_library:scene>
   </desc>
    <metadata
		id="metadata-iil-0e7de5a6c5ffb12479b5247599952d68">
      <rdf:RDF>
      <cc:Work
         rdf:about="">
        <dc:format>image/svg+xml</dc:format>
        <dc:type
           rdf:resource="http://purl.org/dc/dcmitype/StillImage" />
        <cc:license
           rdf:resource="http://creativecommons.org/licenses/by-sa/3.0/" />
        <dc:title>Grain silos 2</dc:title>
		<dc:date>2008-12-22</dc:date>
        <dc:creator>
			<cc:Agent>
				<dc:title>Kim Kraeer &amp; Lucy Van Essen-Fishman</dc:title>
			</cc:Agent>	
		</dc:creator>   
		<dc:rights>
          <cc:Agent>
            <dc:title>Kim Kraeer &amp; Lucy Van Essen-Fishman, Integration and Application Network</dc:title>
          </cc:Agent>
        </dc:rights>
        <dc:publisher>
          <cc:Agent>
            <dc:title>Integration and Application Network</dc:title>
          </cc:Agent>
        </dc:publisher>
		<dc:identifier>http://ian.umces.edu/imagelibrary/displayimage-5642.html</dc:identifier>
        <dc:source>http://ian.umces.edu/imagelibrary/displayimage-5642.html</dc:source>
        <dc:language>en-US</dc:language>
        <dc:subject>
          <rdf:Bag>
            <rdf:li>symbol vector illustration agriculture agricultural industry farming production land use cultivation grain silage silos harvest storage stores </rdf:li>
          </rdf:Bag>
        </dc:subject>
        <dc:coverage></dc:coverage>
        <dc:description>Illustration of grain silos</dc:description>
        <dc:contributor>
          <cc:Agent>
            <dc:title></dc:title>
          </cc:Agent>
        </dc:contributor>
      </cc:Work>
      <cc:License
         rdf:about="http://creativecommons.org/licenses/by-sa/3.0/">
        <cc:permits
           rdf:resource="http://creativecommons.org/ns#Reproduction" />
        <cc:permits
           rdf:resource="http://creativecommons.org/ns#Distribution" />
        <cc:requires
           rdf:resource="http://creativecommons.org/ns#Notice" />
        <cc:requires
           rdf:resource="http://creativecommons.org/ns#Attribution" />
        <cc:permits
           rdf:resource="http://creativecommons.org/ns#DerivativeWorks" />
        <cc:requires
           rdf:resource="http://creativecommons.org/ns#ShareAlike" />
      </cc:License>
    </rdf:RDF>
  </metadata>
	
 <defs></defs>
 <line y2="27.125" x1="39.307" x2="61.644" stroke="#D2CDC2" y1="27.59" stroke-width=".5" fill="none"/>
 <line y2="36.244" x1="38.853" x2="61.644" stroke="#D2CDC2" y1="36.698" stroke-width=".5" fill="none"/>
 <line y2="48.092" x1="38.397" x2="61.644" stroke="#D2CDC2" y1="48.092" stroke-width=".5" fill="none"/>
 <polygon stroke="#818683" stroke-width=".5" points="38.397 61.77 39.762 16.203 60.274 17.112 62.088 48.092 64.823 47.637 63.458 13.917 36.112 13.917 35.663 63.584" fill="#D2CDC2"/>
 <linearGradient id="ian_symbols_2b37fdd9dc177a343518ab8abc00b6fe" y2="116.92" gradientUnits="userSpaceOnUse" x2="155.08" y1="47.502" x1="18.848">
  <stop stop-color="#F2F4F8" offset=".0056"/>
  <stop stop-color="#8B8E88" offset=".2865"/>
  <stop stop-color="#7E8482" offset=".8034"/>
 </linearGradient>
 <path stroke="#586068" stroke-width=".5" d="m.125 84.248s.584-.335 1.641-.953c10.878-6.249 72.415-41.544 72.48-41.576 13.727-7.884 29.685 2.854 41.544 9.357 15.135 8.296 30.221 16.657 45.34 24.974 3.845 2.112 7.678 4.256 11.534 6.368l-72.295-2.437-43.131.606-35.853 1.224-21.251 2.437z" fill="url(#ian_symbols_2b37fdd9dc177a343518ab8abc00b6fe)"/>
 <linearGradient id="ian_symbols_7e6b6ec535804ec4c14f220fb7cac475" y2="188.71" gradientUnits="userSpaceOnUse" x2="173.27" y1="188.71" x1="3.1621">
  <stop stop-color="#787985" offset=".0056"/>
  <stop stop-color="#575E66" offset=".3539"/>
 </linearGradient>
 <path stroke="#586068" stroke-width=".5" d="m3.162 83.641s1.814 206.34 1.825 206.56c.011 1.007 22.927 4.624 25.516 4.852 22.678 1.982 58.043 2.383 77.765 2.437 6.455.012 64.861-4.061 65.001-10.342l-.606-204.73c-26.447-.856-52.904-1.896-79.368-2.339-19.115-.314-38.219-.098-57.329.509l-32.801 3.051z" fill="url(#ian_symbols_7e6b6ec535804ec4c14f220fb7cac475)"/>
 <line y2="92.143" x1="3.162" x2="62.088" stroke="#586068" y1="95.175" stroke-width=".5" fill="none"/>
 <line y2="103.68" x1="4.38" x2="60.274" stroke="#586068" y1="106.12" stroke-width=".5" fill="none"/>
 <line y2="116.44" x1="3.769" x2="59.662" stroke="#586068" y1="118.26" stroke-width=".5" fill="none"/>
 <line y2="127.37" x1="3.162" x2="58.444" stroke="#586068" y1="129.81" stroke-width=".5" fill="none"/>
 <line y2="140.75" x1="3.769" x2="60.881" stroke="#586068" y1="140.75" stroke-width=".5" fill="none"/>
 <line y2="151.68" x1="4.976" x2="62.088" stroke="#586068" y1="151.68" stroke-width=".5" fill="none"/>
 <line y2="163.22" x1="4.38" x2="61.482" stroke="#586068" y1="163.22" stroke-width=".5" fill="none"/>
 <line y2="175.36" x1="5.588" x2="62.7" stroke="#586068" y1="175.36" stroke-width=".5" fill="none"/>
 <line y2="185.7" x1="4.976" x2="62.088" stroke="#586068" y1="185.7" stroke-width=".5" fill="none"/>
 <line y2="197.84" x1="4.976" x2="62.088" stroke="#586068" y1="197.84" stroke-width=".5" fill="none"/>
 <line y2="210.01" x1="5.588" x2="62.7" stroke="#586068" y1="210.01" stroke-width=".5" fill="none"/>
 <line y2="221.54" x1="6.194" x2="63.307" stroke="#586068" y1="221.54" stroke-width=".5" fill="none"/>
 <line y2="232.48" x1="6.194" x2="63.307" stroke="#586068" y1="232.48" stroke-width=".5" fill="none"/>
 <line y2="245.24" x1="6.194" x2="63.307" stroke="#586068" y1="245.24" stroke-width=".5" fill="none"/>
 <line y2="257.39" x1="6.194" x2="63.307" stroke="#586068" y1="254.35" stroke-width=".5" fill="none"/>
 <line y2="273.19" x1="6.194" x2="65.738" stroke="#586068" y1="266.5" stroke-width=".5" fill="none"/>
 <line y2="287.15" x1="5.588" x2="63.307" stroke="#586068" y1="280.48" stroke-width=".5" fill="none"/>
 <line y2="151.07" x1="4.38" x2="61.482" stroke="#586068" y1="152.28" stroke-width=".5" fill="none"/>
 <line y2="162" x1="3.162" x2="60.274" stroke="#586068" y1="163.83" stroke-width=".5" fill="none"/>
 <line y2="175.36" x1="3.162" x2="62.088" stroke="#586068" y1="175.36" stroke-width=".5" fill="none"/>
 <linearGradient id="ian_symbols_f71ceadc74e83e14d97b8b731eb7a067" y2="193.31" gradientUnits="userSpaceOnUse" x2="497.69" y1="193.31" x1="199.39">
  <stop stop-color="#595A56" offset=".0056"/>
  <stop stop-color="#77766E" offset=".2697"/>
  <stop stop-color="#7C7B72" offset=".296"/>
  <stop stop-color="#929084" offset=".432"/>
  <stop stop-color="#9F9D8E" offset=".5637"/>
  <stop stop-color="#A3A192" offset=".6854"/>
  <stop stop-color="#7B7D74" offset=".8708"/>
  <stop stop-color="#7B7F74" offset=".9719"/>
 </linearGradient>
 <path stroke="#586068" stroke-width=".5" d="m497.69 97.612l-1.213 188.03c-13.689 2.09-27.378 4.104-41.057 6.238-29.815 4.646-60.345 2.989-90.409 2.979-25.05 0-50.164-.271-75.117-2.762-24.671-2.459-65.348-7.679-89.889-11.015l-.618-186.52c51.443-1.581 119.27-3.119 170.75-3.032 28.504.054 56.922-.715 85.351 1.971 3.7.355 42.22 3.539 42.21 4.113z" fill="url(#ian_symbols_f71ceadc74e83e14d97b8b731eb7a067)"/>
 <linearGradient id="ian_symbols_8eac829eee336f1469f4586696ae9c91" y2="56.851" gradientUnits="userSpaceOnUse" x2="500.12" y1="56.851" x1="198.78">
  <stop stop-color="#A9A89D" offset=".0056"/>
  <stop stop-color="#91938C" offset=".3539"/>
 </linearGradient>
 <path stroke="#586068" stroke-width=".5" d="m367.07 18.017l133.05 78.382-2.426 1.213c-25.461-2.177-51.01-5.231-76.536-6.325-13.635-.574-27.237-.086-40.861.054-22.494.238-44.999.466-67.471.704-32.35.346-81.713 1.635-114.04 2.523 3.336-.097 106.23-56.056 128.25-70.557 9.692-6.379 17.501-8.453 29.1-7.809l10.94 1.815z" fill="url(#ian_symbols_8eac829eee336f1469f4586696ae9c91)"/>
 <line y2="90.93" x1="349.45" x2="352.48" stroke="#586068" y1="19.836" stroke-width=".5" fill="none"/>
 <line y2="91.536" x1="354.92" x2="361.6" stroke="#586068" y1="50.826" stroke-width=".5" fill="none"/>
 <line y2="90.313" x1="351.27" x2="369.51" stroke="#586068" y1="18.017" stroke-width=".5" fill="none"/>
 <line y2="90.93" x1="364.04" x2="378.01" stroke="#586068" y1="51.433" stroke-width=".5" fill="none"/>
 <line y2="90.313" x1="354.31" x2="387.74" stroke="#586068" y1="18.017" stroke-width=".5" fill="none"/>
 <line y2="89.717" x1="373.77" x2="395.63" stroke="#586068" y1="52.044" stroke-width=".5" fill="none"/>
 <line y2="91.536" x1="356.75" x2="405.35" stroke="#586068" y1="18.628" stroke-width=".5" fill="none"/>
 <line y2="90.93" x1="358.56" x2="419.33" stroke="#586068" y1="18.017" stroke-width=".5" fill="none"/>
 <line y2="92.749" x1="359.77" x2="433.89" stroke="#586068" y1="19.235" stroke-width=".5" fill="none"/>
 <line y2="90.313" x1="346.41" x2="343.99" stroke="#586068" y1="52.044" stroke-width=".5" fill="none"/>
 <line y2="90.313" x1="348.85" x2="335.48" stroke="#586068" y1="16.809" stroke-width=".5" fill="none"/>
 <line y2="93.355" x1="362.22" x2="444.84" stroke="#586068" y1="18.017" stroke-width=".5" fill="none"/>
 <line y2="92.143" x1="363.43" x2="453.34" stroke="#586068" y1="18.017" stroke-width=".5" fill="none"/>
 <line y2="92.749" x1="370.12" x2="463.06" stroke="#586068" y1="19.836" stroke-width=".5" fill="none"/>
 <line y2="90.313" x1="345.81" x2="300.24" stroke="#586068" y1="16.809" stroke-width=".5" fill="none"/>
 <line y2="90.93" x1="342.16" x2="258.94" stroke="#586068" y1="18.017" stroke-width=".5" fill="none"/>
 <path stroke="#A9A89D" stroke-width=".5" d="m232.21 105.51s173.75-4.863 264.27 1.819" fill="none"/>
 <path stroke="#A9A89D" stroke-width=".5" d="m233.42 115.83s173.75-4.852 264.27 1.83" fill="none"/>
 <path stroke="#A9A89D" stroke-width=".5" d="m232.81 126.77s173.76-4.852 264.26 1.831" fill="none"/>
 <path stroke="#A9A89D" stroke-width=".5" d="m232.81 137.7s173.76-4.863 264.26 1.819" fill="none"/>
 <path stroke="#A9A89D" stroke-width=".5" d="m231.59 148.02s173.76-4.841 264.28 1.83" fill="none"/>
 <path stroke="#A9A89D" stroke-width=".5" d="m231.59 160.78s173.76-4.852 264.28 1.83" fill="none"/>
 <path stroke="#A9A89D" stroke-width=".5" d="m231.59 171.73s173.76-4.862 264.28 1.819" fill="none"/>
 <path stroke="#A9A89D" stroke-width=".5" d="m231.59 181.45s173.76-4.863 264.28 1.819" fill="none"/>
 <path stroke="#A9A89D" stroke-width=".5" d="m232.81 192.38s173.76-4.853 264.26 1.841" fill="none"/>
 <path stroke="#A9A89D" stroke-width=".5" d="m232.81 203.32s173.76-4.873 264.26 1.809" fill="none"/>
 <path stroke="#A9A89D" stroke-width=".5" d="m232.21 213.64s173.75-4.862 264.27 1.819" fill="none"/>
 <path stroke="#A9A89D" stroke-width=".5" d="m232.21 225.19s173.75-4.862 264.27 1.809" fill="none"/>
 <line y2="237.95" x1="232.21" x2="496.48" stroke="#A9A89D" y1="236.13" stroke-width=".5" fill="none"/>
 <line y2="250.09" x1="231.6" x2="495.87" stroke="#A9A89D" y1="248.28" stroke-width=".5" fill="none"/>
 <path stroke="#A9A89D" stroke-width=".5" d="m232.21 260.43s170.12 6.064 264.27 1.819" fill="none"/>
 <path stroke="#A9A89D" stroke-width=".5" d="m231.6 273.8s151.27 13.971 264.27 1.83" fill="none"/>
 <line y2="71.782" x1="337.76" x2="230.68" stroke="#818683" y1="6.629" stroke-width=".5" fill="none"/>
 <line y2="21.661" x1="330.48" x2="330.48" stroke="#818683" y1="11.643" stroke-width=".5" fill="none"/>
 <line y2="14.833" x1="330.01" x2="325.91" stroke="#818683" y1="21.661" stroke-width=".5" fill="none"/>
 <line y2="26.22" x1="325.91" x2="324.09" stroke="#818683" y1="14.372" stroke-width=".5" fill="none"/>
 <line y2="20.302" x1="323.63" x2="316.33" stroke="#818683" y1="26.22" stroke-width=".5" fill="none"/>
 <line y2="30.78" x1="316.33" x2="314.98" stroke="#818683" y1="19.836" stroke-width=".5" fill="none"/>
 <line y2="25.311" x1="314.98" x2="308.15" stroke="#818683" y1="31.229" stroke-width=".5" fill="none"/>
 <line y2="35.794" x1="308.15" x2="307.23" stroke="#818683" y1="24.851" stroke-width=".5" fill="none"/>
 <line y2="29.87" x1="306.78" x2="300.39" stroke="#818683" y1="35.794" stroke-width=".5" fill="none"/>
 <line y2="39.433" x1="299.95" x2="299.95" stroke="#818683" y1="29.87" stroke-width=".5" fill="none"/>
 <line y2="34.424" x1="299.48" x2="292.65" stroke="#818683" y1="39.433" stroke-width=".5" fill="none"/>
 <line y2="43.532" x1="292.65" x2="292.19" stroke="#818683" y1="33.969" stroke-width=".5" fill="none"/>
 <line y2="38.983" x1="292.19" x2="285.36" stroke="#818683" y1="43.992" stroke-width=".5" fill="none"/>
 <line y2="48.092" x1="285.36" x2="285.36" stroke="#818683" y1="38.518" stroke-width=".5" fill="none"/>
 <line y2="43.532" x1="284.9" x2="278.53" stroke="#818683" y1="48.092" stroke-width=".5" fill="none"/>
 <line y2="52.196" x1="278.07" x2="278.07" stroke="#818683" y1="43.532" stroke-width=".5" fill="none"/>
 <line y2="47.637" x1="277.6" x2="272.14" stroke="#818683" y1="52.196" stroke-width=".5" fill="none"/>
 <line y2="54.01" x1="271.69" x2="272.14" stroke="#818683" y1="47.637" stroke-width=".5" fill="none"/>
 <line y2="50.377" x1="272.14" x2="265.31" stroke="#818683" y1="54.471" stroke-width=".5" fill="none"/>
 <line y2="58.57" x1="265.77" x2="265.77" stroke="#818683" y1="50.377" stroke-width=".5" fill="none"/>
 <line y2="54.925" x1="266.68" x2="258.94" stroke="#818683" y1="58.57" stroke-width=".5" fill="none"/>
 <line y2="62.674" x1="258.94" x2="259.39" stroke="#818683" y1="54.471" stroke-width=".5" fill="none"/>
 <line y2="58.115" x1="259.84" x2="253.01" stroke="#818683" y1="62.674" stroke-width=".5" fill="none"/>
 <line y2="66.318" x1="253.01" x2="253.01" stroke="#818683" y1="57.666" stroke-width=".5" fill="none"/>
 <line y2="61.77" x1="253.01" x2="247.09" stroke="#818683" y1="65.864" stroke-width=".5" fill="none"/>
 <line y2="69.508" x1="247.54" x2="247.09" stroke="#818683" y1="61.77" stroke-width=".5" fill="none"/>
 <line y2="65.403" x1="247.09" x2="241.61" stroke="#818683" y1="69.053" stroke-width=".5" fill="none"/>
 <line y2="72.248" x1="242.07" x2="241.61" stroke="#818683" y1="65.403" stroke-width=".5" fill="none"/>
 <line y2="68.144" x1="242.07" x2="236.61" stroke="#818683" y1="72.248" stroke-width=".5" fill="none"/>
 <line y2="74.977" x1="236.61" x2="236.15" stroke="#818683" y1="68.587" stroke-width=".5" fill="none"/>
 <line y2="7.083" x1="367.83" x2="367.83" stroke="#818683" y1="18.017" stroke-width=".5" fill="none"/>
 <line y2="16.646" x1="357.35" x2="356.89" stroke="#818683" y1="6.168" stroke-width=".5" fill="none"/>
 <line y2="16.203" x1="345.06" x2="345.5" stroke="#818683" y1="5.725" stroke-width=".5" fill="none"/>
 <line y2="18.017" x1="336.85" x2="337.31" stroke="#818683" y1="6.629" stroke-width=".5" fill="none"/>
 <path stroke="#818683" stroke-width=".5" d="m336.39 6.629s21.866-2.274 31.895 1.37" fill="none"/>
 <line y2="12.547" x1="367.83" x2="337.31" stroke="#818683" y1="13.013" stroke-width=".5" fill="none"/>
 <line y2="33.969" x1="164.16" x2="165.07" stroke="#818683" y1="21.206" stroke-width=".5" fill="none"/>
 <line y2="31.695" x1="153.67" x2="154.13" stroke="#818683" y1="20.751" stroke-width=".5" fill="none"/>
 <line y2="31.229" x1="143.65" x2="143.65" stroke="#818683" y1="20.302" stroke-width=".5" fill="none"/>
 <line y2="32.599" x1="133.18" x2="132.71" stroke="#818683" y1="20.751" stroke-width=".5" fill="none"/>
 <line y2="33.514" x1="126.34" x2="126.34" stroke="#818683" y1="21.206" stroke-width=".5" fill="none"/>
 <path stroke="#818683" stroke-width=".5" d="m165.07 28.04c-16.407-2.729-38.273-.916-38.273-.916" fill="none"/>
 <path stroke="#818683" stroke-width=".5" d="m126.34 21.661s24.14-3.184 37.364 0" fill="none"/>
 <linearGradient id="ian_symbols_a3c63b67fd4de0e431b1a13252ea938d" y2="23.719" gradientUnits="userSpaceOnUse" x2="150.03" y1="23.719" x1="140.92">
  <stop stop-color="#A3A192" offset=".0449"/>
  <stop stop-color="#DBDECF" offset=".9719"/>
 </linearGradient>
 <polygon stroke="#818683" stroke-width=".5" points="141.38 31.695 140.92 15.742 149.57 15.742 150.03 31.695" fill="url(#ian_symbols_a3c63b67fd4de0e431b1a13252ea938d)"/>
 <linearGradient id="ian_symbols_2419df4649c74dd4b5b8bf83ee1414c4" y2="108.62" gradientUnits="userSpaceOnUse" x2="216.66" y1="37.48" x1="77.044">
  <stop stop-color="#F2F4F8" offset=".0056"/>
  <stop stop-color="#8B8E88" offset=".2865"/>
  <stop stop-color="#7E8482" offset=".8034"/>
 </linearGradient>
 <polygon stroke="#586068" stroke-width=".5" points="139.86 31.392 124.66 33.817 57.236 76.353 114.95 71.479 175.09 73.309 234.03 74.522 164.76 33.206 151.4 31.392" fill="url(#ian_symbols_2419df4649c74dd4b5b8bf83ee1414c4)"/>
 <linearGradient id="ian_symbols_a15aee1f0338478409b13cdda7a7a1e9" y2="190.96" gradientUnits="userSpaceOnUse" x2="234.63" y1="190.96" x1="57.236">
  <stop stop-color="#788084" offset=".1236"/>
  <stop stop-color="#9C9D9B" offset=".4157"/>
  <stop stop-color="#FFFFFD" offset=".6685"/>
  <stop stop-color="#ADADA7" offset=".8202"/>
  <stop stop-color="#818683" offset="1"/>
 </linearGradient>
 <path stroke="#586068" stroke-width=".5" d="m57.236 76.353l1.814 223.56c13.473 2.469 26.935 5.252 40.456 7.418 15.79 2.523 31.808 2.913 47.771 3.098 22.786.292 41.999.173 64.092-5.989 1.625-.455 23.263-5.296 23.263-6.346 0-.012-.606-223.58-.606-223.58-39.086-1.148-78.312-3.736-117.42-2.989-12.211.238-25.05 2.372-36.903 2.372l-22.461 2.46z" fill="url(#ian_symbols_a15aee1f0338478409b13cdda7a7a1e9)"/>
 <line y2="69.66" x1="145.33" x2="148.98" stroke="#586068" y1="31.392" stroke-width=".5" fill="none"/>
 <line y2="70.883" x1="147.75" x2="158.08" stroke="#586068" y1="31.998" stroke-width=".5" fill="none"/>
 <line y2="71.479" x1="153.83" x2="178.13" stroke="#586068" y1="33.817" stroke-width=".5" fill="none"/>
 <line y2="70.266" x1="150.8" x2="167.19" stroke="#586068" y1="32.599" stroke-width=".5" fill="none"/>
 <line y2="70.266" x1="144.12" x2="139.86" stroke="#586068" y1="32.599" stroke-width=".5" fill="none"/>
 <line y2="70.266" x1="141.07" x2="130.13" stroke="#586068" y1="32.599" stroke-width=".5" fill="none"/>
 <line y2="69.053" x1="139.24" x2="114.95" stroke="#586068" y1="33.206" stroke-width=".5" fill="none"/>
 <path stroke="#586068" stroke-width=".5" d="m57.837 98.825s82.628-4.863 176.8-.606" fill="none"/>
 <path stroke="#586068" stroke-width=".5" d="m57.837 87.887s82.628-4.852 176.8-.618" fill="none"/>
 <path stroke="#586068" stroke-width=".5" d="m58.444 109.75s82.628-4.852 176.8-.606" fill="none"/>
 <path stroke="#586068" stroke-width=".5" d="m58.444 122.52s82.628-4.863 176.8-.606" fill="none"/>
 <path stroke="#586068" stroke-width=".5" d="m58.444 134.67s82.628-4.863 176.8-.618" fill="none"/>
 <path stroke="#586068" stroke-width=".5" d="m58.444 146.21s82.628-4.852 176.8-.606" fill="none"/>
 <path stroke="#586068" stroke-width=".5" d="m58.444 158.98s82.628-4.862 176.8-.617" fill="none"/>
 <path stroke="#586068" stroke-width=".5" d="m57.236 171.73s82.622-4.862 176.79-.606" fill="none"/>
 <path stroke="#586068" stroke-width=".5" d="m58.444 182.05s82.628-4.863 176.8-.606" fill="none"/>
 <path stroke="#586068" stroke-width=".5" d="m59.662 194.22s82.633-4.874 176.79-.617" fill="none"/>
 <path stroke="#586068" stroke-width=".5" d="m59.662 207.57s82.633-4.863 176.79-.606" fill="none"/>
 <path stroke="#586068" stroke-width=".5" d="m58.444 218.51s82.628-4.863 176.8-.618" fill="none"/>
 <line y2="230.05" x1="59.05" x2="232.81" stroke="#586068" y1="228.84" stroke-width=".5" fill="none"/>
 <line y2="240.98" x1="59.662" x2="233.42" stroke="#586068" y1="239.77" stroke-width=".5" fill="none"/>
 <line y2="253.14" x1="60.274" x2="234.03" stroke="#586068" y1="253.14" stroke-width=".5" fill="none"/>
 <line y2="267.11" x1="59.05" x2="234.03" stroke="#586068" y1="265.9" stroke-width=".5" fill="none"/>
 <path stroke="#586068" stroke-width=".5" d="m59.05 275.62s97.822 5.458 174.98 1.202" fill="none"/>
 <path stroke="#586068" stroke-width=".5" d="m59.05 288.37c74.733 7.895 175.58 1.224 175.58 1.224" fill="none"/>
 <line y2=".705" x1="134.98" x2="155.5" stroke="#D2CDC2" y1=".25" stroke-width=".5" fill="none"/>
 <line y2="15.288" x1="155.5" x2="155.04" stroke="#D2CDC2" y1=".25" stroke-width=".5" fill="none"/>
 <line y2="14.833" x1="155.04" x2="142.3" stroke="#D2CDC2" y1="14.833" stroke-width=".5" fill="none"/>
 <line y2="11.183" x1="142.74" x2="135.91" stroke="#D2CDC2" y1="14.833" stroke-width=".5" fill="none"/>
 <line y2=".25" x1="135.45" x2="135.91" stroke="#D2CDC2" y1="11.183" stroke-width=".5" fill="none"/>
 <line y2="30.325" x1="142.3" x2="52.525" stroke="#999B94" y1="14.833" stroke-width=".5" fill="none"/>
 <line y2="27.125" x1="136.83" x2="52.525" stroke="#999B94" y1="11.643" stroke-width=".5" fill="none"/>
 <line y2="16.203" x1="135.45" x2="51.155" stroke="#999B94" y1=".25" stroke-width=".5" fill="none"/>
 <line y2="26.681" x1="52.07" x2="52.07" stroke="#999B94" y1="15.742" stroke-width=".5" fill="none"/>
 <line y2="30.78" x1="52.07" x2="53.885" stroke="#999B94" y1="27.125" stroke-width=".5" fill="none"/>
 <line y2="25.311" x1="52.525" x2="60.274" stroke="#999B94" y1="16.646" stroke-width=".5" fill="none"/>
 <line y2="14.372" x1="60.274" x2="65.289" stroke="#999B94" y1="24.851" stroke-width=".5" fill="none"/>
 <line y2="22.576" x1="65.738" x2="74.396" stroke="#999B94" y1="13.917" stroke-width=".5" fill="none"/>
 <line y2="11.183" x1="74.396" x2="78.496" stroke="#999B94" y1="23.036" stroke-width=".5" fill="none"/>
 <line y2="20.751" x1="78.041" x2="86.245" stroke="#999B94" y1="11.183" stroke-width=".5" fill="none"/>
 <line y2="8.909" x1="85.79" x2="90.804" stroke="#999B94" y1="20.751" stroke-width=".5" fill="none"/>
 <line y2="18.017" x1="90.804" x2="98.542" stroke="#999B94" y1="8.454" stroke-width=".5" fill="none"/>
 <line y2="6.168" x1="98.542" x2="103.56" stroke="#999B94" y1="18.477" stroke-width=".5" fill="none"/>
 <line y2="16.646" x1="104.01" x2="110.84" stroke="#999B94" y1="6.168" stroke-width=".5" fill="none"/>
 <line y2="4.81" x1="110.84" x2="115.4" stroke="#999B94" y1="16.203" stroke-width=".5" fill="none"/>
 <line y2="13.917" x1="115.4" x2="121.32" stroke="#999B94" y1="4.354" stroke-width=".5" fill="none"/>
 <line y2="2.069" x1="121.78" x2="125.88" stroke="#999B94" y1="13.917" stroke-width=".5" fill="none"/>
 <line y2="10.273" x1="126.34" x2="134.55" stroke="#999B94" y1="2.069" stroke-width=".5" fill="none"/>
 <line y2="6.629" x1="155.04" x2="137.28" stroke="#D2CDC2" y1="7.083" stroke-width=".5" fill="none"/>
</svg>
