<svg xmlns="http://www.w3.org/2000/svg" width="800" height="670" viewBox="0 0 800 670"><path fill="#A4A9AB" d="M51.5 141.5c0-.2-.8-.4-1.4-.6-10.1-3.6-18.6-7.5-25.6-11.8v386.5c7 4.6 16 8.8 27 12.6V141.5zM52.8 137.8L159.4 28.9 25.1 125.6c7.4 4.4 16.5 8.4 27.2 12 .2.1.3.2.5.2zM164.9 29.3l-107.7 110c12.4 3.9 26.3 7 41.6 9.5l66.1-119.5zM131.8 36.8L4.3 103.1c.8 3 2.2 5.9 4.4 8.8l123.1-75.1zM7.5 115.5l-3-4.5v379.3c0 3.3 1 6.6 3 9.8V115.5zM4.5 94.6c-.1.3-.2.6-.2.9-.3 1-.5 1.9-.5 2.9v.3l121.6-63.2-17.5 7.8-16.4 7.1-78.2 34.5s-7.5 3-8.8 9.7zM19.5 512.7V126.4c-1-1.5-4.1-2.9-5.9-4.5-.8-.6-1.1-1.3-2.1-1.9v385.7c2 1.6 3.2 3.3 5.2 4.8.9.8 2.8 1.5 2.8 2.2zM147.4 32.3L11.5 115.2c1.5 1.6 3.2 3.1 5.1 4.7 1.4 1.1 2.9 2.2 4.6 3.3l126.2-90.9zM170.5 29.6l-66.9 119.7c.8.1 1.9.2 2.7.4 20.2 2.9 41.2 4.4 64.2 4.4V29.6zM326.7 119.8c1.9-1.5 3.6-3.1 5.1-4.7L195.9 32.3l126.2 90.9c1.7-1.1 3.2-2.2 4.6-3.4zM252 50.3l-16.4-7.1-17.5-7.8 121.6 63.2v-.3c0-.9-.2-1.9-.5-2.9-.1-.3-.2-.6-.2-.9-1.3-6.7-8.8-9.7-8.8-9.7L252 50.3zM339 103.1L211.6 36.8l123.1 75.1c2.1-2.9 3.6-5.8 4.3-8.8zM238.1 149.7c.8-.1 1.9-.2 2.7-.4L174.5 29.6v124.5c22 0 43.4-1.5 63.6-4.4zM291.1 137.7c10.7-3.6 19.8-7.7 27.2-12L184 28.9l106.6 108.9c.2 0 .3-.1.5-.1zM286.2 139.2l-107.7-110 66.2 119.5c15.2-2.4 29.1-5.6 41.5-9.5z"/><path fill="#FFF" d="M291.2 221.6L62 346.1c1.2 5.7 3.8 11.2 7.7 16.6l221.5-141.1zM313 219c-.1 0-.2-.1-.3-.1L94.4 384.6c8.1 5.1 17.5 10 28 14.5L313 219zM122.5 403.8c-11-4.5-20-9.4-28-14.5v221.8c8 5.3 17 10.2 28 14.9V403.8zM242.5 433.6c-24-3-46-7.1-66-12.1v222.2c20 5 42 9.1 66 12V433.6zM331.5 439.1c-30-.1-58-1.8-84-4.9v222.1c26 3.1 54 4.8 84 4.8v-222zM318.9 220.5L127.6 401.2c13 5.2 27.6 10 43.5 14.1l147.8-194.8zM171.5 420.1c-16-4.2-31-9-44-14.2v222.2c13 5.3 28 10.1 44 14.2V420.1zM577.5 607.6c6-4.2 11-8.7 15-13.2V373.9c-4 4.2-9 8.2-15 12v221.7zM300.2 222L72.9 366.7c4.5 5.2 10.2 10.1 17 14.9L300.2 222zM68.5 587.7V368.5c-3-3.2-5-6.5-7-9.9V567h-.2c0 7 3.2 13.9 7.2 20.7zM365.8 222l210.3 159.6c6.8-4.7 12.5-9.7 17-14.9L365.8 222zM75.8 317.6c-3.7 1.8-11.9 6.8-13.7 14.4 0 .1.2.3.2.4-.4 2.1-.8 6.4-.8 6.4v1.8l219.9-119.2-52.1 24.6-25.5 11.7-126.3 59.1v-.1l-1.7.9zM73.5 594.3c4 4.6 9 9 15 13.2V386c-5-3.9-10-7.9-15-12v220.3zM325 221.3c-.1 0-.1 0 0 0L176.5 416.7c20.1 5 42.3 9 66 11.9L325 221.3zM604 346.1L374.8 221.6l221.5 141c3.9-5.3 6.6-10.9 7.7-16.5zM572.5 389.3c-8 5.1-18 10-28 14.5V626c10-4.6 20-9.6 28-14.9V389.3zM571.6 384.6L353.3 219c-.1 0-.2.1-.3.1l190.5 180c10.6-4.5 20-9.4 28.1-14.5zM605.5 567V358.6c-3 3.4-5 6.7-8 9.9v219.3c5-6.9 7.2-13.7 7.2-20.7h.8zM436.7 246L385 221.4l220.4 119.2V339h-.4c-.1-2-.4-4.5-.9-6.5 0-.1-.1-.3-.1-.3-1.8-7.6-10.1-12.6-13.8-14.5l-1.7-.7-.1.1L462.2 258l-25.5-12zM538.5 405.9c-13 5.3-27 10.1-43 14.2v222.2c16-4.2 30-9 43-14.2V405.9zM331.5 217.7s1.6.1 2.5.1c.9 0 1.5 0 2.5-.1 6-.2 12.3-1.2 17-2.8 5.2-1.8 6.8-4 6.8-5.3 0-1.4-1.5-3.5-6.7-5.3-4.7-1.7-11.1-2.7-17.1-2.8-1 0-1.7-.1-2.5-.1s-2.5 0-2.5.1c-7 .2-13.3 1.2-18 2.8-5.2 1.8-7.3 4-7.3 5.3 0 1.4 2.3 3.5 7.4 5.3 4.8 1.7 10.9 2.7 17.9 2.8zM336.5 434c29-.1 56.1-1.6 82.2-4.6l-83-207.4h.8v212zM331.5 222h-1.1l-82 207.4c26 3 54.2 4.5 83.2 4.6V222zM418.5 434.2c-26 3.1-53 4.8-82 4.9v222c29-.1 56-1.8 82-4.8V434.2zM490.5 421.4c-21 5.1-43 9.2-66 12.1v222.1c23-2.9 45-7 66-12V421.4z"/><path fill="#818689" d="M432.5 0L292.7 64.4l9.5 4.3L432 8.8l353.5 163.1V488h8V166.8"/><path fill="#FFF" d="M489.5 416.7L341.1 221.3h-.1l82.5 207.3c23.7-2.9 45.8-6.9 66-11.9zM538.4 401.2L347.1 220.5l147.8 194.8c15.9-4.1 30.5-8.8 43.5-14.1z"/><path fill="gray" d="M610.5 341.8c0-.9-.3-1.8-.3-2.6 0-3.1-.6-6.1-1.3-9.1 0 0-.1-.1 0-.1-.2-.4-.4-1-.6-1.6-2.4-9.9-13.9-14.5-13.9-14.5l-117.6-55.1-18.7-8.8-96.7-45.3c-1.5-1.4-3.7-2.8-7.2-4-5.6-2-13-3.1-20.8-3.1h-1c-7.8 0-15.2 1.1-20.8 3.1-3.5 1.2-5.8 2.6-7.2 4L207.8 250l-18.7 8.8-117.5 55.1s-11.5 4.6-13.8 14.5c-.2.7-.3 1.2-.5 1.6v.1c-.8 3-1 6-1 9.1 0 .9.2 1.8.2 2.6v221.9c0 .9-.2 1.6-.2 2.5 0 55.1 123.8 99.8 276.2 99.8h1c152.4 0 276.7-44.7 276.7-99.8 0-.9.3-1.6.3-2.5V341.8zM436.7 246l25.5 11.7 126.2 59.1v-.1l1.7.8c3.7 1.8 11.9 6.8 13.7 14.4v.5c.4 2.1.9 4.5 1 6.5h.5v1.6L385.1 221.4l51.6 24.6zm-123.2-41.7c4.7-1.7 11-2.7 18-2.8 0 0 1.6-.1 2.5-.1.9 0 1.5 0 2.5.1 6 .2 12.3 1.2 17 2.8 5.2 1.8 6.8 4 6.8 5.3 0 1.4-1.5 3.5-6.7 5.3-4.7 1.7-11.1 2.7-17.1 2.8-1 0-1.7.1-2.5.1s-2.5 0-2.5-.1c-7-.2-13.3-1.2-18-2.8-5.2-1.8-7-4-7-5.3 0-1.3 1.9-3.4 7-5.3zm23 17.4L419 429.2c-26 3-53.5 4.7-82.5 4.7V221.7zm-5 212.3c-29-.1-56.8-1.7-82.9-4.7l82.9-207.6V434zM62.3 332.3c0-.1-.1-.2-.1-.3 1.8-7.6 10-12.6 13.7-14.5l1.7-.7v.1l126.2-59.3 25.5-12 52.2-24.5-220 119.5v-1.8s.3-4.4.8-6.5zm6.2 255.4c-4-6.9-7.2-13.7-7.2-20.7h.2V358.6c2 3.4 4 6.7 7 9.9v219.2zm1.2-225.1c-3.9-5.4-6.5-10.9-7.7-16.6l229.2-124.4-221.5 141zm18.8 245c-6-4.2-11-8.7-15-13.2V373.9c5 4.2 10 8.2 15 12v221.7zM72.9 366.7L300.2 222 89.9 381.5c-6.8-4.7-12.5-9.7-17-14.8zM122.5 626c-11-4.6-20-9.6-28-14.9V389.3c8 5.1 17 10 28 14.5V626zM94.4 384.6l218.5-165.5-190.5 180c-10.5-4.5-19.9-9.4-28-14.5zm77.1 257.8c-16-4.2-31-9-44-14.2V405.9c13 5.3 28 10.1 44 14.2v222.3zm-43.9-241.2l191.3-180.7-147.8 194.8c-15.9-4.1-30.5-8.8-43.5-14.1zm114.9 254.5c-24-2.9-46-7-66-12V421.4c20 5.1 42 9.2 66 12.1v222.2zm-66-239l148.4-195.3h.1l-82.5 207.3c-23.7-3-45.8-7-66-12zm71 17.5c26 3.1 54 4.8 84 4.9v222c-30-.1-58-1.8-84-4.8V434.2zm171 222.1c-26 3.1-53 4.8-82 4.8v-222c29-.1 56-1.8 82-4.9v222.1zm-77.5-435l148.4 195.3c-20.1 5-42.3 9-66 11.9L341 221.3zm149.5 422.4c-21 5-43 9.1-66 12V433.6c23-3 45-7.1 66-12.1v222.2zM347.1 220.5l191.3 180.7c-13 5.2-27.6 10-43.5 14.1L347.1 220.5zm191.4 407.6c-13 5.3-27 10.1-43 14.2V420.1c16-4.2 30-9 43-14.2v222.2zM353 219c.1 0 218.5 165.5 218.5 165.5-8.1 5.1-17.5 10-28 14.5L353 219zm219.5 392.1c-8 5.3-18 10.2-28 14.9V403.8c10-4.5 20-9.4 28-14.5v221.8zm20-16.8c-4 4.6-9 9-15 13.2V386c6-3.9 11-7.9 15-12v220.3zm-16.4-212.8L365.8 222l227.3 144.7c-4.5 5.1-10.2 10.1-17 14.8zM374.8 221.6L604 346.1c-1.2 5.7-3.8 11.2-7.7 16.6L374.8 221.6zm222.7 366.1V368.5c3-3.2 5-6.5 8-9.9V567h-.8c0 7-2.2 13.9-7.2 20.7z"/><path fill="#FFF" d="M332.5 197.7h.3v-.1c-.1 0-.2.1-.3.1z"/><path fill="#A4A9AB" d="M56.5 341.8c0-.9-.2-1.8-.2-2.6 0-3.1.3-6.1 1.1-9.1l-.1-.1c.2-.4.3-1 .5-1.6 2.4-9.9 13.8-14.5 13.8-14.5l26.3-12.4.5-148.7c-15.4-2.5-28.9-5.9-41.9-9.9V529.6 341.8zM170.5 267.9V158.5c-23-.1-45.5-1.7-66.3-4.8-.4-.1-1.1-.1-1.5-.2l.2 146 67.6-31.6zM189.5 258.7h-.2l18.6-8.8 33.2-15.6-.1-80.9c-.4.1-.5.1-.9.2-20.8 3.1-42.5 4.7-65.5 4.8v107.4l14.9-7.1zM288.5 212.6v-69.7c-13 4-27.3 7.3-42.7 9.9l.4 79.5 42.3-19.7zM304.7 204.6c1.5-1.4 4.1-2.8 7.6-4 2.3-.8 5.2-1.5 8.2-2v-69.5c-7 4.3-16 8.2-26.1 11.8-.6.2-1.9.4-1.9.6v69l12.2-5.9zM333.5 197.5V120c-1 .6-1.8 1.3-2.6 1.9-1.8 1.5-4.4 3-6.4 4.5V198c3-.3 6-.5 9-.5zM340.5 197.8V111l-3 4.5v82.1c1 0 2 .1 3 .2z"/><path fill="#818689" d="M603 319.5zM431.9 13.7L307.4 71.2l25.9 11.6c.5.2 6.9 3.3 9 9 .8 2.4 1.4 5.3 1.4 7.1l-.1 87.7 259.9-.1v133.9c2 2.1 3.8 4.7 4.6 7.8.2.7.4 1.2.6 1.6v.1c.8 3 1 6 1 9.1 0 .9-.2 1.8-.2 2.6V488h171V174.6L431.9 13.7zM601.5 318.2z"/><path opacity=".6" fill="#0A0A0A" d="M56.3 533.8c-2.3-.7-4.4-1.4-6.5-2.2-11.8-4.2-21.7-8.8-29.5-14 8.5 6.8 20.4 12.9 35.3 18.1.2.1.5.2.7.3v-2.2zM800.5 493V170.9l-6-2.7V489h-184v74.7c0 .9-.3 1.6-.3 2.5 0 55.1-124.3 99.8-276.7 99.8h-1c-105.8 0-197.9-21.7-244.3-53.3 44.2 33.9 139.7 57.3 250.1 57.3h1c152.4 0 276.8-44.6 276.8-99.7 0-.9.4-1.5.4-2.4V493h184z"/><path fill="#818689" d="M347 198.8l-.3.2h244.8V312.6l2.7 1.3s2.3 1 5.3 3V191h-255v7.2c1 .1 1.6.5 2.5.6z"/><path fill="#FFF" d="M432.5 8.8l-130.2 60-37.1-16.6-15.9-7.2v-.1l-.4-.1-61.2-27.5c-.8-.5-1.9-1-3.2-1.5-3.1-1.1-6.9-1.9-11.1-2h-3c-4.2.1-8 .8-11.1 1.9-1.3.4-2.4 1-3.2 1.5L94.7 44.7l-.4.1v.1l-15.9 7.2L10 82.8c-.5.2-7.2 3.2-8.9 9C1 92.1.8 93 .8 93c-.4 1.8-.7 4.2-.7 6v2h.4v385.4c0 1-.3 1.9-.3 2.7 0 8.2 4.4 16.1 13.3 23.5 8.5 7.1 20.8 13.5 36.4 19 2.1.7 4.6 1.5 6.6 2.2v-4.1-386.8c13 4 26.5 7.3 41.9 9.9l-.3 148.7 4.3-2 .1-146c.4.1 1.3.1 1.7.2 20.8 3.1 43.3 4.7 66.3 4.8v109.4l4-2V158.5c23-.1 44.7-1.7 65.5-4.8.4-.1.7-.1 1.1-.2v80.9l4.3-2 .4-79.5c15.4-2.5 29.7-5.9 42.7-9.9v69.7l4-2.2v-69c0-.2 1.3-.4 1.9-.6 10.1-3.6 19.1-7.5 26.1-11.8v69.5c1-.3 3-.5 4-.6v-71.6c2-1.5 4.6-2.9 6.4-4.5.8-.6 1.6-1.3 2.6-1.9v77.6h4v-82.1l3-4.5v86.8l4 .4V192h255v125c2 .9 3 2.1 5 3.4V187H343.8s-.5-87.6-.5-88.1c0-1.8-.2-3.8-.7-5.6 0 0-.2-1-.3-1.4-1.8-5.8-8.5-8.9-8.9-9.1l-25.8-11.6 124.9-57.5 349.1 160.9V489h5V171.9L432.5 8.8zM3.7 98.4c0-.9.2-1.9.5-2.9.1-.3.2-.6.2-.9 1.3-6.7 8.8-9.7 8.8-9.7l78.2-34.6 16.4-7.1 17.5-7.8L3.7 98.6v-.2zm3.8 401.7c-2-3.2-3-6.5-3-9.8V111l3 4.5v384.6zm1.2-388.2c-2.2-2.9-3.6-5.8-4.4-8.8l127.4-66.3-123 75.1zm10.8 400.8c0-.7-1.9-1.4-2.8-2.1-2-1.6-3.2-3.2-5.2-4.8V120c1 .6 1.3 1.3 2.1 1.9 1.8 1.5 4.9 3 5.9 4.5v386.3zm-2.8-392.9c-1.9-1.5-3.6-3.1-5.1-4.7l135.9-82.9-126.3 91c-1.6-1.1-3.1-2.2-4.5-3.4zm34.8 408.3c-11-3.8-20-8-27-12.6V129.1c7 4.3 15.5 8.2 25.6 11.8.6.2 1.4.4 1.4.6v386.6zm1.3-390.3c-.1 0-.3-.1-.4-.1-10.7-3.6-19.8-7.7-27.2-12L159.5 29 52.8 137.8zm45.9 10.9c-15.2-2.4-29.1-5.6-41.6-9.5l107.7-110-66.1 119.5zm71.8 5.5c-23-.1-44.2-1.5-64.5-4.4-.8-.1-1.4-.2-2.2-.4l66.7-119.7v124.5zM172 25.7c-8.5 0-15.4-1.9-15.4-4.2 0-2.3 6.9-4.2 15.4-4.2s15.4 1.9 15.4 4.2c0 2.3-6.9 4.2-15.4 4.2zm66.1 124c-20.2 2.9-41.6 4.4-63.6 4.4V29.6l66.3 119.7c-.8.2-1.8.3-2.7.4zm6.5-1L178.5 29.3l107.7 110c-12.4 3.8-26.3 7-41.6 9.4zm46.5-11c-.1 0-.3.1-.4.1L184 28.9l134.3 96.7c-7.4 4.4-16.5 8.5-27.2 12.1zm35.6-17.9c-1.4 1.1-2.9 2.2-4.6 3.3L195.9 32.3l135.9 82.9c-1.4 1.5-3.1 3.1-5.1 4.6zm8-7.9L211.6 36.8 339 103.1c-.7 3-2.2 5.9-4.3 8.8zm-4.6-27s7.4 3 8.8 9.7c.1.3.2.6.2.9.3 1 .5 1.9.5 2.9v.3L218.1 35.4l17.5 7.8 16.4 7.1 78.1 34.6z"/><ellipse fill="#A4A9AB" cx="172" cy="21.5" rx="15.4" ry="4.2"/><path opacity=".6" fill="#0A0A0A" d="M354.3 200.6c2.1.8 3.8 1.6 5.1 2.4h232.1v-4H348.4c2.1.4 4.1 1 5.9 1.6z"/></svg>